<?xml version="1.0" standalone="no"?>
<!DOCTYPE svg PUBLIC "-//W3C//DTD SVG 20010904//EN"
 "http://www.w3.org/TR/2001/REC-SVG-20010904/DTD/svg10.dtd">
<svg version="1.0" xmlns="http://www.w3.org/2000/svg"
 width="1280.000000pt" height="294.000000pt" viewBox="0 0 1280.000000 294.000000"
 preserveAspectRatio="xMidYMid meet">

<g transform="translate(0.000000,294.000000) scale(0.100000,-0.100000)"
fill="#000000" stroke="none">
<path d="M6448 2915 c-2 -2 -25 -6 -51 -9 -47 -6 -125 -34 -98 -35 11 -1 11
-4 1 -15 -6 -8 -18 -12 -27 -9 -12 5 -12 7 -1 14 9 6 9 9 1 9 -6 0 -18 -6 -25
-14 -8 -7 -24 -17 -37 -21 -13 -4 -50 -34 -82 -67 -49 -49 -57 -63 -48 -75 7
-8 8 -13 3 -12 -20 3 -34 -2 -34 -12 0 -6 7 -9 15 -5 19 7 19 -1 0 -21 -8 -8
-12 -19 -9 -25 4 -7 2 -8 -4 -4 -6 4 -9 13 -5 21 3 8 2 15 -1 15 -7 0 -36 -68
-35 -84 0 -6 4 -2 8 9 7 17 8 17 13 -7 3 -15 1 -25 -4 -22 -4 3 -11 -9 -15
-26 -4 -23 -8 -28 -15 -18 -6 8 -8 -34 -5 -115 3 -77 10 -133 17 -142 6 -8 9
-19 5 -24 -3 -6 -1 -19 5 -28 10 -16 11 -16 7 4 -3 13 1 24 10 27 10 4 13 1 9
-12 -18 -60 -17 -73 9 -131 19 -41 31 -58 41 -54 10 4 12 0 7 -13 -6 -16 -4
-16 20 2 32 23 35 37 5 29 -21 -5 -21 -5 -5 6 27 16 50 -7 25 -25 -20 -14 -24
-36 -8 -36 6 0 10 5 10 12 0 6 3 8 6 5 4 -4 1 -13 -5 -21 -9 -10 -9 -16 -1
-21 15 -9 9 -113 -7 -119 -8 -3 -10 1 -6 12 6 14 4 15 -8 5 -23 -19 -64 -106
-52 -110 8 -3 8 -15 2 -39 -6 -19 -7 -39 -4 -44 3 -5 0 -7 -8 -4 -14 5 -17
-21 -5 -42 4 -6 0 -24 -8 -40 -11 -20 -14 -46 -10 -84 3 -38 2 -46 -3 -25 -10
36 -14 -763 -4 -882 3 -46 10 -83 14 -83 5 0 6 7 3 15 -4 8 -1 15 5 15 14 0
15 -27 1 -35 -13 -8 -13 -112 -1 -119 5 -4 11 0 14 6 2 7 4 -1 3 -19 -1 -17
-4 -29 -8 -26 -12 7 -9 -37 4 -74 7 -18 16 -33 20 -33 4 0 8 -6 8 -14 0 -8 15
-31 34 -50 18 -20 31 -36 28 -36 -12 0 49 -41 107 -71 59 -31 73 -34 171 -37
118 -4 199 12 241 48 21 18 22 19 4 14 -17 -5 -16 -2 5 15 30 25 20 28 -16 4
-17 -11 -21 -18 -13 -23 8 -6 4 -12 -12 -21 -20 -10 -22 -10 -13 2 5 8 9 23 9
34 -1 13 4 21 14 22 9 1 31 4 50 7 l34 6 -19 -21 c-19 -22 -19 -22 4 -8 12 8
20 19 18 25 -2 6 4 25 14 42 10 16 16 32 14 35 -3 3 2 4 12 4 10 -1 18 6 19
18 1 11 6 29 10 39 6 15 5 17 -5 11 -8 -5 -11 -4 -7 2 4 6 17 10 29 9 32 -3
57 20 51 47 -3 15 -2 18 4 9 7 -9 14 -2 25 26 14 37 14 42 -4 70 -12 19 -25
29 -34 25 -9 -3 -14 1 -12 13 0 11 0 28 0 38 -2 20 -2 20 -17 0 -15 -19 -16
-19 -14 1 2 33 -1 41 -10 26 -7 -10 -9 -4 -8 20 2 27 -2 34 -16 33 -17 -2 -36
40 -23 53 3 4 6 -3 6 -15 0 -12 5 -22 11 -22 7 0 8 7 4 17 -4 10 -10 32 -13
48 -6 28 -7 27 -18 -20 l-13 -50 4 70 c3 43 1 62 -4 50 -15 -36 -23 -262 -11
-286 8 -13 8 -19 1 -15 -13 8 -30 -57 -27 -101 2 -24 -1 -30 -12 -25 -12 4
-14 0 -10 -16 4 -16 0 -25 -13 -32 -10 -6 -19 -9 -19 -7 0 10 32 67 41 72 5 4
9 11 9 17 0 7 -14 -4 -31 -23 -17 -19 -35 -33 -41 -31 -6 2 -8 -4 -4 -13 5
-13 1 -15 -15 -10 -16 5 -19 4 -14 -5 6 -10 1 -11 -19 -6 -14 3 -25 2 -24 -3
3 -10 -6 -12 -24 -6 -24 7 -176 10 -165 3 7 -4 27 -8 46 -8 19 0 31 -3 27 -7
-11 -11 -76 -11 -69 0 3 5 -3 6 -15 3 -20 -7 -100 34 -103 52 -6 32 -5 51 2
46 4 -2 5 -12 2 -22 -5 -13 -3 -14 7 -5 10 9 9 15 -2 32 -8 12 -17 18 -20 16
-3 -3 -13 11 -23 30 -9 20 -14 39 -11 42 3 4 11 -8 17 -26 16 -47 19 -34 5 23
-10 37 -14 45 -20 30 -6 -16 -9 -16 -16 -4 -6 8 -10 20 -10 25 0 6 4 4 9 -4 7
-11 11 -5 16 21 4 20 5 44 2 55 -3 10 -6 3 -7 -17 -2 -33 -3 -33 -10 -10 -4
14 -8 57 -9 96 -1 41 -6 76 -13 83 -11 11 -10 12 0 6 11 -6 13 17 12 126 -3
193 -2 217 10 199 7 -10 10 5 10 53 0 50 -4 73 -17 85 -15 15 -16 14 -10 -18
3 -19 2 -55 -2 -80 -5 -29 -8 18 -7 132 1 171 13 215 15 56 1 -45 5 -78 11
-78 6 0 11 68 12 180 1 99 2 195 3 213 1 17 -1 44 -6 60 -7 24 3 39 14 20 2
-5 2 -2 0 6 -2 7 1 19 7 26 6 7 21 35 35 61 22 45 11 39 -22 -12 -11 -17 -12
-15 -6 11 3 17 9 31 13 33 5 2 6 12 3 22 -3 11 0 20 6 20 6 0 8 -8 4 -17 -6
-15 -4 -16 9 -6 8 7 19 9 23 5 5 -4 5 -2 2 4 -3 6 5 17 18 24 21 11 23 16 12
28 -10 13 -9 14 12 3 17 -9 26 -10 34 -2 6 6 20 11 31 11 17 0 18 2 6 10 -10
6 -22 5 -35 -4 -17 -11 -23 -10 -37 3 -15 15 -10 16 58 17 42 1 80 6 86 12 6
6 17 8 25 5 12 -5 10 -9 -8 -19 -22 -13 -21 -13 16 -8 29 4 46 1 60 -11 20
-16 20 -16 -2 -6 -12 6 -30 11 -40 10 -10 0 -4 -5 15 -12 47 -17 100 -63 132
-114 15 -24 30 -40 32 -36 3 4 3 2 1 -6 -2 -7 1 -19 5 -25 18 -22 24 -73 23
-201 0 -89 3 -123 9 -107 5 12 13 22 18 22 5 0 6 14 4 31 -3 22 -1 30 7 25 6
-4 11 -2 11 4 0 6 5 8 11 4 8 -4 9 0 4 15 -5 15 -2 21 9 21 9 0 16 4 16 9 0 5
5 22 12 38 6 15 10 31 10 36 -1 4 11 21 28 39 16 17 30 34 30 39 0 18 -13 38
-21 34 -4 -3 -7 7 -5 23 3 18 -6 46 -25 77 -60 103 -60 104 -29 150 37 55 63
106 56 113 -3 3 -6 0 -6 -7 0 -7 -5 -9 -11 -5 -6 4 -7 9 -2 13 15 10 43 94 43
128 0 18 5 35 10 38 6 4 8 10 5 15 -3 4 1 20 9 35 9 18 16 22 19 13 8 -17 2
218 -6 257 -7 37 -26 84 -26 68 -1 -6 4 -24 9 -38 7 -18 7 -32 -1 -43 -7 -13
-9 -13 -6 -2 2 8 -3 30 -10 49 -10 24 -11 37 -4 44 6 6 11 16 11 22 0 5 -9 -3
-20 -20 -11 -16 -20 -25 -20 -18 0 6 4 14 9 17 5 3 11 15 14 26 4 17 3 19 -9
9 -11 -9 -14 -8 -14 7 0 22 -58 81 -74 76 -6 -2 -6 2 1 9 10 10 19 5 43 -22
16 -19 30 -29 30 -24 -1 14 -60 78 -67 71 -3 -3 -15 1 -27 9 -22 16 -40 20
-32 7 2 -4 -4 -8 -15 -8 -17 0 -17 2 -4 16 14 13 19 13 48 -3 l32 -19 -25 27
c-15 16 -32 24 -42 22 -10 -3 -16 -1 -13 3 11 17 -36 39 -71 33 -20 -3 -34 -1
-34 5 0 5 9 8 20 5 41 -11 18 6 -27 20 -45 14 -167 29 -175 22z m17 -25 c-3
-5 -14 -10 -23 -10 -15 0 -15 2 -2 10 20 13 33 13 25 0z m154 -6 c3 -4 -9 -4
-28 0 -27 5 -32 3 -27 -9 4 -10 -1 -15 -15 -15 -13 0 -18 4 -13 12 5 8 -2 9
-24 5 -31 -6 -45 6 -19 16 17 6 119 -1 126 -9z m-209 -14 c13 -8 13 -10 -2
-10 -9 0 -20 5 -23 10 -8 13 5 13 25 0z m-140 -61 c0 -5 -11 -3 -25 3 -18 8
-22 14 -13 19 13 8 38 -7 38 -22z m450 21 c0 -5 -4 -10 -10 -10 -5 0 -10 5
-10 10 0 6 5 10 10 10 6 0 10 -4 10 -10z m-497 -31 c5 -3 1 -9 -8 -12 -9 -4
-13 -3 -10 3 3 6 1 10 -5 10 -13 0 -57 -43 -83 -79 -9 -14 -20 -21 -24 -17 -4
4 -3 10 3 14 6 4 17 18 26 30 19 28 81 73 88 64 3 -4 9 -10 13 -13z m311 -36
c21 -3 36 -1 33 3 -3 5 11 9 32 10 20 1 28 -1 19 -3 -10 -3 -18 -9 -18 -14 0
-6 10 -8 23 -4 19 5 20 4 4 -5 -9 -6 -21 -8 -27 -5 -5 3 -46 6 -92 7 -46 1
-69 4 -53 7 l30 4 -25 8 c-22 7 -21 8 5 3 17 -3 47 -8 69 -11z m-190 -19 c-18
-15 -18 -15 6 -9 45 12 77 15 43 5 -18 -6 -35 -16 -39 -22 -5 -7 -2 -9 9 -5
80 31 156 31 227 1 25 -10 49 -17 54 -16 18 6 63 -9 63 -21 0 -20 34 -67 44
-61 5 3 6 -2 3 -10 -5 -13 -10 -11 -27 12 -12 15 -26 30 -32 34 -5 4 -6 8 -2
8 5 0 1 7 -8 16 -31 31 -27 5 5 -28 17 -18 36 -44 41 -58 10 -23 12 -24 23 -8
12 16 14 16 25 -8 7 -15 8 -32 3 -41 -8 -13 -10 -13 -15 1 -4 10 -3 15 3 11
12 -8 13 5 1 24 -5 7 -11 9 -14 4 -8 -13 3 -82 14 -89 5 -2 6 -18 2 -35 -3
-17 0 -55 7 -85 13 -52 12 -55 -8 -70 -19 -13 -21 -21 -16 -56 5 -27 4 -39 -3
-35 -6 4 -17 -11 -26 -33 -8 -22 -11 -37 -5 -34 5 4 4 -4 -2 -17 -17 -32 -25
-39 -17 -14 4 14 -1 10 -16 -9 -12 -17 -32 -39 -44 -51 -15 -15 -19 -25 -12
-37 6 -11 5 -19 -2 -24 -7 -4 -9 -3 -6 2 3 6 2 16 -3 23 -6 11 -12 10 -31 -4
l-24 -17 25 7 c14 4 21 4 17 -1 -15 -15 -197 -31 -197 -16 0 5 -14 15 -30 22
-42 17 -113 92 -135 141 -18 40 -19 40 -31 17 -12 -21 -13 -22 -14 -3 0 11 -7
30 -15 42 -8 12 -11 23 -7 25 5 2 7 20 4 40 -2 21 -8 36 -12 33 -4 -2 -5 8 -2
23 l5 27 8 -30 c8 -26 16 -87 18 -124 1 -12 4 -12 13 -3 8 8 9 15 3 20 -6 4
-11 16 -12 27 -6 66 -25 191 -30 195 -3 3 -3 -13 0 -35 4 -27 3 -35 -3 -25 -5
8 -9 44 -9 80 1 48 3 57 8 35 l7 -30 8 40 c4 21 14 51 21 65 10 19 10 31 2 45
-9 18 -9 19 6 6 15 -12 17 -11 17 8 0 12 4 20 9 16 5 -3 13 0 16 5 4 6 25 25
47 41 23 16 37 29 31 29 -13 0 -13 33 1 42 21 14 30 8 10 -8z m282 -14 c6 0
11 -7 11 -15 0 -8 -4 -12 -9 -9 -4 3 -20 12 -36 21 -26 14 -26 15 -2 9 14 -3
30 -6 36 -6z m-481 -19 c-3 -6 -11 -11 -17 -11 -6 0 -6 6 2 15 14 17 26 13 15
-4z m678 5 c4 -10 1 -13 -8 -9 -8 3 -12 9 -9 14 7 12 11 11 17 -5z m-529 -29
c-10 -6 -23 -16 -27 -24 -10 -16 -27 -17 -27 -2 0 5 5 7 10 4 6 -3 10 -1 10 4
0 6 -6 11 -12 11 -10 0 -9 3 1 9 7 5 25 9 39 9 23 0 23 -1 6 -11z m-94 -92
c14 -19 14 -19 -2 -6 -10 7 -18 18 -18 24 0 6 1 8 3 6 1 -2 9 -13 17 -24z
m-138 -39 c-3 -5 -9 -1 -13 10 -12 31 -10 39 5 19 8 -11 12 -24 8 -29z m128
-1 c0 -5 -5 -3 -10 5 -5 8 -10 20 -10 25 0 6 5 3 10 -5 5 -8 10 -19 10 -25z
m707 -32 c-3 -10 -5 -2 -5 17 0 19 2 27 5 18 2 -10 2 -26 0 -35z m-100 -55
c-3 -7 -5 -2 -5 12 0 14 2 19 5 13 2 -7 2 -19 0 -25z m153 4 c0 -15 -2 -15
-10 -2 -13 20 -13 33 0 25 6 -3 10 -14 10 -23z m-30 -2 c0 -5 -4 -10 -10 -10
-5 0 -10 5 -10 10 0 6 5 10 10 10 6 0 10 -4 10 -10z m-901 -71 c6 -17 4 -31
-5 -44 -12 -17 -14 -11 -13 46 1 35 3 55 6 44 2 -11 8 -31 12 -46z m51 -109
c0 -5 -2 -10 -4 -10 -3 0 -8 5 -11 10 -3 6 -1 10 4 10 6 0 11 -4 11 -10z m-40
-16 c0 -8 -4 -12 -10 -9 -5 3 -10 10 -10 16 0 5 5 9 10 9 6 0 10 -7 10 -16z
m857 -31 c-3 -10 -5 -2 -5 17 0 19 2 27 5 18 2 -10 2 -26 0 -35z m-110 15 c-3
-8 -6 -5 -6 6 -1 11 2 17 5 13 3 -3 4 -12 1 -19z m123 -45 c-11 -17 -11 -17
-6 0 3 10 7 26 7 35 1 15 2 15 6 0 2 -10 -1 -25 -7 -35z m-119 -28 c-8 -46 -9
-47 -10 -13 -1 34 8 73 15 66 2 -2 -1 -26 -5 -53z m-706 -39 c2 -56 1 -65 -11
-55 -16 14 -19 39 -3 39 7 0 8 16 3 48 -3 26 -3 44 0 41 4 -4 9 -37 11 -73z
m722 2 c-3 -7 -5 -2 -5 12 0 14 2 19 5 13 2 -7 2 -19 0 -25z m90 10 c-3 -8 -6
-5 -6 6 -1 11 2 17 5 13 3 -3 4 -12 1 -19z m-140 -10 c-3 -8 -6 -5 -6 6 -1 11
2 17 5 13 3 -3 4 -12 1 -19z m-487 -60 c0 -19 -16 -5 -17 14 -2 18 0 20 7 8 5
-8 10 -18 10 -22z m23 -33 c-7 -19 -19 -19 -27 1 -3 8 -2 12 4 9 6 -3 10 -1
10 5 0 6 4 9 10 5 5 -3 7 -12 3 -20z m400 -35 c-24 -23 -39 -14 -17 11 9 10
21 16 26 13 5 -3 1 -14 -9 -24z m177 6 c0 -16 -22 -58 -27 -52 -4 3 -13 -6
-20 -21 -7 -16 -11 -20 -8 -10 3 10 6 33 6 50 1 18 3 24 6 15 6 -24 23 -23 23
2 0 11 5 20 10 20 6 0 10 -2 10 -4z m-498 -27 c29 -19 23 -19 -21 -1 -10 4
-12 1 -6 -8 5 -9 4 -11 -3 -6 -12 7 -17 36 -7 36 2 0 19 -9 37 -21z m-101 -6
c13 -16 12 -17 -3 -4 -17 13 -22 21 -14 21 2 0 10 -8 17 -17z m375 -147 c2
-23 1 -23 -17 -8 -18 16 -18 17 -2 24 10 3 18 7 18 7 0 1 1 -10 1 -23z m213
-51 c13 -26 21 -48 18 -51 -2 -3 -14 16 -26 41 -12 25 -26 45 -31 45 -6 0 -10
7 -10 16 0 26 22 2 49 -51z m-723 18 c-1 -19 -27 -55 -34 -48 -6 5 21 65 29
65 4 0 6 -8 5 -17z m551 -10 c11 -14 14 -14 10 -3 -3 10 2 16 13 16 10 0 16
-6 13 -13 -3 -7 -9 -13 -14 -13 -5 0 -9 -5 -9 -11 0 -6 6 -9 14 -6 10 4 12 0
9 -14 -3 -10 -6 -19 -8 -19 -1 0 -14 18 -29 40 -26 40 -26 55 1 23z m143 -58
c0 -5 -5 -3 -10 5 -5 8 -10 20 -10 25 0 6 5 3 10 -5 5 -8 10 -19 10 -25z
m-690 5 c-24 -15 -37 -11 -16 5 11 8 22 12 25 9 3 -3 -1 -9 -9 -14z m627 -142
c-3 -7 -5 -2 -5 12 0 14 2 19 5 13 2 -7 2 -19 0 -25z m36 12 c-3 -11 -7 -20
-9 -20 -2 0 -4 9 -4 20 0 11 4 20 9 20 5 0 7 -9 4 -20z m-591 -58 c-8 -22 -21
6 -14 31 5 20 6 20 12 1 4 -10 5 -25 2 -32z m-13 -50 c3 10 7 -12 8 -48 1 -36
-1 -63 -4 -60 -7 7 -20 81 -28 156 -4 40 -3 38 7 -10 7 -36 13 -49 17 -38z
m586 29 c0 -27 -3 -47 -7 -45 -4 3 -9 -13 -11 -33 -2 -21 -2 -4 0 37 4 65 9
90 16 90 1 0 2 -22 2 -49z m-728 -153 c-3 -7 -5 -2 -5 12 0 14 2 19 5 13 2 -7
2 -19 0 -25z m0 -250 c-2 -24 -4 -5 -4 42 0 47 2 66 4 43 2 -24 2 -62 0 -85z
m13 -93 c0 -14 -4 -25 -9 -25 -4 0 -6 11 -3 25 2 14 6 25 8 25 2 0 4 -11 4
-25z m-13 -167 c-2 -13 -4 -3 -4 22 0 25 2 35 4 23 2 -13 2 -33 0 -45z m16
-243 c3 -37 2 -51 -3 -35 -8 25 -13 107 -6 99 2 -2 6 -31 9 -64z m104 -37 c-3
-8 -6 -5 -6 6 -1 11 2 17 5 13 3 -3 4 -12 1 -19z m590 -45 c-3 -10 -5 -4 -5
12 0 17 2 24 5 18 2 -7 2 -21 0 -30z m-580 -25 c-3 -7 -5 -2 -5 12 0 14 2 19
5 13 2 -7 2 -19 0 -25z m623 16 c0 -8 -5 -12 -10 -9 -6 4 -8 11 -5 16 9 14 15
11 15 -7z m7 -46 c-3 -8 -6 -5 -6 6 -1 11 2 17 5 13 3 -3 4 -12 1 -19z m-48
-30 c1 -5 -3 -8 -9 -8 -5 0 -10 12 -9 28 0 24 1 25 9 7 5 -11 9 -23 9 -27z
m-592 0 c-3 -7 -5 -2 -5 12 0 14 2 19 5 13 2 -7 2 -19 0 -25z m630 -40 c-3 -7
-5 -2 -5 12 0 14 2 19 5 13 2 -7 2 -19 0 -25z m-619 -24 c-3 -27 -4 -26 -9 8
-3 22 -1 34 4 29 5 -5 7 -21 5 -37z m725 -10 c-9 -27 -10 -28 -15 -6 -4 14 -2
20 5 15 6 -4 8 2 4 17 -4 16 -3 20 5 12 7 -7 7 -20 1 -38z m-133 -6 c0 -5 -4
-8 -10 -8 -5 0 -10 10 -10 23 0 18 2 19 10 7 5 -8 10 -18 10 -22z m-33 0 c-3
-8 -6 -5 -6 6 -1 11 2 17 5 13 3 -3 4 -12 1 -19z m-633 -117 c9 -7 16 -20 16
-28 0 -8 9 -26 20 -40 11 -14 20 -31 20 -37 0 -6 -21 20 -45 58 -25 38 -45 76
-44 85 0 11 3 10 9 -4 4 -12 15 -27 24 -34z m45 -41 c0 -9 -6 -4 -14 10 -19
33 -19 49 0 24 8 -10 14 -26 14 -34z m121 10 c0 -5 -2 -10 -4 -10 -3 0 -8 5
-11 10 -3 6 -1 10 4 10 6 0 11 -4 11 -10z m367 -12 c-3 -8 -6 -5 -6 6 -1 11 2
17 5 13 3 -3 4 -12 1 -19z m-27 8 c0 -3 -4 -8 -10 -11 -5 -3 -10 -1 -10 4 0 6
5 11 10 11 6 0 10 -2 10 -4z m124 -27 c-3 -6 -2 -14 4 -18 7 -4 6 -12 -3 -24
-11 -16 -12 -14 -10 15 3 38 3 38 11 38 3 0 2 -5 -2 -11z m-493 -69 c1 -5 2
-15 3 -20 1 -13 62 -50 81 -50 8 0 15 -4 15 -10 0 -5 -2 -10 -5 -10 -7 0 -59
24 -65 30 -3 3 -22 14 -42 24 -21 11 -38 23 -38 28 0 5 9 4 21 -2 11 -7 23 -9
27 -6 3 3 0 6 -6 6 -7 0 -12 5 -12 10 0 6 5 10 10 10 6 0 11 -4 11 -10z m298
-96 c8 -7 -114 -2 -144 6 -17 4 8 5 55 2 47 -2 87 -6 89 -8z m71 12 c0 -2 -11
-6 -25 -8 -13 -3 -22 -1 -19 3 5 9 44 13 44 5z"/>
<path d="M6935 2251 c-3 -5 -1 -12 5 -16 5 -3 10 1 10 9 0 18 -6 21 -15 7z"/>
<path d="M6927 2207 c-11 -29 -9 -53 4 -40 6 6 9 21 7 34 -3 21 -4 22 -11 6z"/>
<path d="M5099 2110 c-48 -10 -115 -31 -149 -48 l-62 -30 -55 19 c-154 55
-370 70 -488 35 -306 -91 -473 -349 -514 -796 -14 -153 -13 -269 4 -480 27
-332 33 -372 60 -435 31 -70 72 -128 86 -120 5 3 6 0 3 -8 -3 -9 17 -31 58
-62 111 -84 206 -115 351 -115 93 0 166 17 242 55 l52 27 63 -32 c131 -66 358
-62 495 9 52 27 60 29 84 17 149 -77 407 -74 543 7 65 38 121 90 143 133 11
22 22 41 26 44 10 9 19 41 9 35 -25 -15 -40 245 -40 685 0 212 5 427 10 477
l10 93 -32 52 c-79 130 -156 218 -262 298 -182 137 -414 188 -637 140z m310
-280 c215 -68 392 -281 440 -530 19 -94 15 -584 -5 -697 -15 -87 -45 -174 -72
-205 -47 -55 -228 -72 -315 -28 -26 13 -54 34 -62 46 -34 53 -43 226 -25 498
l11 150 -28 55 c-35 70 -71 88 -106 53 -22 -22 -22 -28 -28 -360 -4 -236 -9
-346 -18 -367 -33 -79 -100 -114 -217 -115 -102 0 -156 25 -197 91 -43 70 -57
159 -57 370 0 247 -7 308 -34 321 -14 6 -31 6 -48 -1 l-26 -10 -7 -318 c-6
-289 -9 -321 -27 -353 -45 -81 -158 -124 -262 -101 -72 16 -145 65 -172 116
-47 86 -77 700 -45 910 35 233 117 378 249 442 52 25 67 27 167 27 103 0 118
-3 232 -42 67 -23 133 -42 147 -42 13 0 55 16 93 37 37 20 93 44 123 54 77 25
207 25 289 -1z"/>
<path d="M6900 2100 c-6 -12 -9 -24 -7 -27 3 -2 11 5 17 17 6 12 9 24 7 27 -3
2 -11 -5 -17 -17z"/>
<path d="M6110 1984 c0 -3 7 -12 15 -20 8 -9 16 -32 16 -52 2 -32 3 -33 6 -8
5 30 -14 86 -28 86 -5 0 -9 -3 -9 -6z"/>
<path d="M6438 1883 c6 -2 18 -2 25 0 6 3 1 5 -13 5 -14 0 -19 -2 -12 -5z"/>
<path d="M6061 1733 c0 -6 -4 -20 -7 -30 -5 -14 -4 -15 5 -7 7 7 11 20 8 30
-3 11 -5 14 -6 7z"/>
<path d="M11675 1624 c-22 -7 -41 -14 -42 -14 -1 0 -12 -17 -25 -37 -21 -34
-24 -53 -28 -188 l-5 -150 -65 3 c-124 6 -241 -35 -328 -113 -48 -44 -59 -76
-54 -155 l4 -50 24 49 c31 62 99 125 170 158 72 33 199 35 269 4 26 -12 51
-21 56 -21 5 0 10 66 10 148 1 81 4 179 8 217 l6 70 125 0 125 0 -3 -483 c-2
-265 -7 -522 -10 -570 l-7 -87 -112 -3 -112 -4 -9 34 c-4 18 -11 32 -15 30 -4
-2 -33 -15 -64 -29 -47 -21 -74 -26 -143 -27 -77 -1 -90 2 -139 29 -69 38
-124 95 -156 159 l-24 51 -1 -70 c0 -38 -3 -79 -6 -90 -7 -29 84 -118 161
-158 63 -32 80 -34 320 -30 28 1 121 0 207 -1 154 -1 157 -1 183 24 21 20 24
26 12 35 -25 18 -55 89 -52 125 4 66 64 204 81 187 4 -4 1 -13 -5 -21 -7 -8
-9 -21 -5 -27 4 -7 3 -9 -4 -5 -15 9 -27 -13 -13 -27 6 -6 11 -26 11 -44 0
-38 15 -44 23 -11 3 13 8 34 11 48 l7 25 -12 -25 c-17 -38 -22 -9 -5 32 9 20
23 39 33 42 15 6 15 9 3 17 -12 8 -10 9 6 4 12 -3 29 -3 38 1 16 6 16 8 0 25
-22 25 -9 25 17 0 21 -19 21 -19 -15 -32 -20 -7 -44 -25 -53 -39 -16 -25 -16
-25 4 -8 25 23 35 22 85 -2 48 -23 48 -23 48 -11 0 5 -14 12 -31 16 -45 10
-28 17 22 9 24 -4 38 -9 30 -12 -10 -3 -7 -9 10 -19 l24 -14 -25 6 c-19 5 -22
4 -10 -4 8 -6 26 -11 40 -11 20 0 22 2 10 11 -12 8 -11 9 5 6 11 -2 19 -9 17
-16 -2 -10 6 -12 35 -6 62 11 90 33 63 50 -5 3 -10 0 -10 -8 0 -8 -7 -17 -15
-21 -13 -4 -14 -2 -5 14 8 16 8 20 -4 20 -8 0 -18 5 -22 11 -4 8 1 9 17 4 16
-5 21 -4 14 3 -8 9 -171 52 -193 52 -22 0 56 -30 93 -36 25 -3 47 -10 50 -14
2 -4 -18 -2 -46 3 -39 8 -53 7 -59 -3 -5 -8 -9 -9 -14 -1 -4 6 -4 11 1 11 4 1
-5 8 -20 16 -17 9 -25 20 -21 27 4 7 4 9 0 5 -5 -4 -20 4 -35 18 -14 13 -33
27 -43 29 -9 3 -19 17 -22 30 -7 29 -21 32 -35 8 -6 -10 -11 -16 -11 -13 0 3
-4 20 -9 38 -6 20 -6 30 0 27 5 -4 9 -16 10 -28 0 -21 1 -21 10 2 8 19 6 27
-6 33 -8 5 -15 14 -15 21 0 7 4 6 10 -3 7 -11 10 -7 10 18 0 18 -4 31 -9 28
-11 -7 -11 75 1 97 5 10 16 16 24 13 8 -3 14 -1 14 5 0 6 12 26 26 45 26 34
24 49 -3 16 -13 -15 -13 -15 -3 5 5 12 20 29 33 38 17 12 19 17 8 24 -14 9 -7
31 10 31 6 0 8 -4 4 -9 -10 -18 15 -22 37 -7 12 9 27 16 33 16 14 0 -43 -48
-67 -56 -11 -3 -17 -8 -15 -11 3 -2 22 4 44 15 21 11 64 23 95 27 32 4 55 11
52 16 -8 14 85 10 141 -5 28 -8 41 -15 30 -16 -17 -2 -16 -3 5 -10 35 -11 60
-11 35 1 -18 8 -18 9 5 7 14 -1 43 4 64 10 22 6 43 9 49 5 14 -9 -15 -23 -35
-17 -10 3 -28 -2 -40 -10 -18 -13 -19 -16 -6 -16 9 0 25 -10 35 -23 10 -13 24
-22 31 -19 15 5 15 1 2 -34 -8 -21 -8 -30 2 -37 9 -6 8 -7 -4 -3 -10 3 -18 1
-18 -5 0 -6 -4 -8 -9 -5 -5 3 -12 -1 -15 -10 -3 -8 -2 -13 3 -10 5 3 11 -5 13
-19 3 -13 1 -22 -4 -19 -5 3 -17 0 -26 -8 -15 -12 -16 -11 -3 5 8 9 12 20 9
23 -3 2 -12 -9 -20 -26 -14 -29 -17 -30 -31 -15 -18 18 -88 40 -158 49 -59 9
-96 -16 -86 -56 6 -22 16 -28 59 -38 38 -8 54 -8 56 0 3 7 8 5 16 -4 6 -9 25
-17 41 -19 17 -2 49 -14 73 -26 23 -12 47 -19 53 -16 5 4 8 3 7 -2 -3 -10 37
-64 44 -58 2 2 4 -4 5 -13 1 -9 6 -46 12 -81 9 -58 8 -68 -15 -118 -25 -59
-31 -103 -13 -103 7 0 8 11 4 29 -3 17 -2 32 4 36 6 3 10 -2 9 -12 0 -10 0
-26 0 -37 2 -15 5 -16 17 -6 24 20 28 6 5 -15 -13 -12 -20 -14 -20 -5 0 9 -3
10 -13 1 -16 -13 -27 -5 -27 21 0 18 -2 18 -29 -4 -15 -13 -26 -27 -24 -31 3
-5 -1 -7 -8 -6 -22 4 -49 -12 -42 -25 4 -8 3 -8 -6 0 -9 8 -25 9 -54 2 -24 -6
-82 -7 -137 -3 -52 4 -111 7 -130 7 -20 -1 -29 2 -22 7 8 5 -3 12 -30 20 -62
17 -88 32 -89 50 0 14 -1 14 -6 1 -3 -8 -9 -17 -14 -20 -4 -3 -11 -18 -14 -33
-6 -23 -4 -29 14 -34 11 -3 21 -9 21 -13 0 -7 49 -24 104 -35 15 -3 26 -8 23
-11 -4 -4 -21 -1 -107 21 -23 6 -23 5 -6 -6 66 -42 314 -80 391 -60 34 8 28 9
-45 6 -74 -3 -78 -3 -30 5 83 12 132 12 124 -1 -8 -13 21 -6 81 21 58 25 138
99 132 121 -3 10 1 24 9 30 12 10 13 8 9 -7 -3 -10 3 -1 14 21 11 22 19 47 19
55 0 8 -6 2 -14 -15 l-15 -30 6 30 c3 17 13 35 21 41 16 13 19 60 3 69 -6 4
-10 23 -9 44 3 54 1 63 -11 55 -8 -4 -7 -9 2 -15 11 -7 10 -9 -3 -9 -10 0 -18
-5 -18 -12 0 -6 -2 -9 -5 -6 -3 3 2 21 10 41 16 39 11 69 -10 61 -9 -4 -12 0
-8 14 3 13 -4 26 -22 40 -24 19 -30 20 -47 8 -10 -8 -28 -12 -39 -9 -10 3 -19
1 -19 -5 0 -11 -56 13 -65 29 -9 14 7 10 29 -6 23 -17 40 -20 31 -5 -8 13 1
13 24 0 27 -14 61 14 61 52 0 25 3 28 14 19 11 -9 15 -8 20 4 3 9 2 13 -4 10
-11 -7 -30 27 -29 52 1 18 2 16 15 -25 8 -25 36 15 29 40 -4 16 -3 19 3 10 7
-11 10 -10 16 3 18 48 -10 143 -46 153 -10 2 -18 8 -18 12 0 10 -147 53 -163
47 -6 -3 7 -8 31 -12 23 -4 42 -11 42 -16 0 -4 -15 -3 -32 2 -18 5 -46 9 -63
8 -29 -1 -30 -1 -5 -9 21 -7 21 -8 5 -9 -20 -1 -58 18 -40 20 6 0 -1 5 -15 10
-18 6 -14 7 18 3 27 -4 42 -2 42 5 0 6 -17 11 -37 11 -21 0 -48 3 -61 6 -17 5
-21 3 -17 -8 4 -10 -4 -14 -32 -15 -32 -1 -34 1 -15 8 35 13 26 15 -41 9 -109
-12 -207 -71 -223 -136 -3 -13 -10 -24 -15 -24 -14 0 -11 30 5 46 12 11 15 54
15 206 1 213 -5 240 -62 282 -25 18 -44 21 -150 22 -82 1 -136 -3 -162 -12z
m545 -414 c-8 -5 -21 -10 -29 -10 -8 0 -20 -8 -27 -17 -12 -17 -13 -17 -10 2
3 18 29 32 66 34 13 1 13 0 0 -9z m148 -7 c-10 -2 -26 -2 -35 0 -10 3 -2 5 17
5 19 0 27 -2 18 -5z m-98 -23 c-8 -5 -22 -10 -30 -10 -13 0 -13 1 0 10 8 5 22
10 30 10 13 0 13 -1 0 -10z m260 0 c0 -5 -2 -10 -4 -10 -3 0 -8 5 -11 10 -3 6
-1 10 4 10 6 0 11 -4 11 -10z m-420 -29 c0 -5 -7 -12 -16 -15 -21 -8 -24 -8
-24 5 0 5 5 7 10 4 6 -3 10 -1 10 4 0 6 5 11 10 11 6 0 10 -4 10 -9z m580 -22
c7 -13 7 -19 0 -19 -5 0 -10 7 -10 15 0 8 -4 15 -10 15 -5 0 -10 5 -10 11 0
14 18 2 30 -22z m-35 -19 c-3 -6 -2 -10 4 -10 6 0 7 -8 4 -17 -6 -15 -7 -14
-13 3 -4 10 -5 25 -3 32 3 6 0 12 -7 12 -6 0 -8 5 -4 11 5 8 10 6 16 -5 5 -9
6 -21 3 -26z m-37 18 c7 -7 12 -17 12 -22 0 -6 -6 -4 -13 5 -7 9 -19 18 -27
22 -13 5 -13 6 1 6 8 1 20 -4 27 -11z m-576 -58 c11 0 15 -5 12 -15 -5 -12
-10 -13 -20 -4 -11 9 -14 8 -14 -4 0 -8 -9 -17 -20 -20 -22 -6 -26 -31 -10
-73 9 -22 8 -25 -2 -16 -10 8 -13 -4 -15 -56 -1 -37 1 -58 4 -47 9 37 21 38
13 0 -9 -41 5 -95 25 -95 18 0 38 -27 30 -40 -8 -12 -40 17 -68 63 -33 51 -28
183 10 285 11 30 19 40 27 32 5 -5 18 -10 28 -10z m275 -118 c-10 -10 -17 -25
-18 -33 0 -11 -2 -11 -6 -1 -5 12 23 52 35 52 3 0 -2 -8 -11 -18z m86 1 c-7
-2 -21 -2 -30 0 -10 3 -4 5 12 5 17 0 24 -2 18 -5z m52 -13 c-3 -5 -14 -10
-23 -9 -14 0 -13 2 3 9 27 11 27 11 20 0z m-95 -10 c18 -12 2 -12 -25 0 -13 6
-15 9 -5 9 8 0 22 -4 30 -9z m144 -7 c4 -9 1 -21 -5 -27 -9 -8 -10 -8 -5 2 4
7 2 19 -4 27 -7 9 -8 15 -2 15 5 0 13 -8 16 -17z m-121 -30 c-7 -2 -19 -2 -25
0 -7 3 -2 5 12 5 14 0 19 -2 13 -5z m93 -30 c-11 -11 -19 6 -11 24 8 17 8 17
12 0 3 -10 2 -21 -1 -24z m210 -51 c-4 -3 -14 2 -24 12 -16 18 -16 18 6 6 13
-6 21 -14 18 -18z m-32 -4 c15 -17 16 -20 2 -15 -9 4 -19 0 -24 -9 -8 -14 -10
-14 -22 1 -7 8 -10 18 -6 22 3 3 6 1 6 -5 0 -7 5 -12 11 -12 6 0 9 6 6 14 -3
8 -3 17 0 20 8 8 6 9 27 -16z m-554 -72 c9 -12 8 -15 -9 -13 -21 1 -26 8 -14
20 9 9 9 9 23 -7z m10 -47 c0 -6 -4 -7 -10 -4 -5 3 -10 11 -10 16 0 6 5 7 10
4 6 -3 10 -11 10 -16z m557 -26 c-3 -10 -5 -4 -5 12 0 17 2 24 5 18 2 -7 2
-21 0 -30z m54 -10 c-12 -20 -14 -14 -5 12 4 9 9 14 11 11 3 -2 0 -13 -6 -23z
m-545 8 c-3 -5 -15 -11 -26 -14 -17 -4 -19 -3 -9 9 12 15 44 20 35 5z m511
-68 c-3 -10 -5 -2 -5 17 0 19 2 27 5 18 2 -10 2 -26 0 -35z m-332 27 c3 -6 -4
-9 -19 -8 -13 1 -22 6 -20 10 7 11 32 10 39 -2z m375 -4 c0 -3 -4 -8 -10 -11
-5 -3 -10 -1 -10 4 0 6 5 11 10 11 6 0 10 -2 10 -4z m17 -28 c-3 -7 -5 -2 -5
12 0 14 2 19 5 13 2 -7 2 -19 0 -25z m-712 -166 c-3 -3 -11 0 -18 7 -9 10 -8
11 6 5 10 -3 15 -9 12 -12z m548 1 c-7 -2 -13 -11 -13 -19 0 -8 -5 -14 -10
-14 -7 0 -7 6 0 20 6 11 16 20 23 19 9 0 9 -2 0 -6z m107 1 c0 -3 -7 -12 -15
-21 -20 -19 -32 -10 -14 11 14 15 29 21 29 10z m-580 -14 c23 -8 22 -8 -8 -7
-19 1 -36 5 -38 9 -6 10 13 9 46 -2z m-95 -10 c3 -5 1 -10 -4 -10 -6 0 -11 5
-11 10 0 6 2 10 4 10 3 0 8 -4 11 -10z m600 0 c-3 -5 -11 -10 -16 -10 -6 0 -7
5 -4 10 3 6 11 10 16 10 6 0 7 -4 4 -10z m29 -29 c-22 -19 -87 -54 -80 -43 4
7 20 19 37 27 19 10 29 23 29 38 1 20 1 21 11 4 6 -11 7 -22 3 -26z m-109 19
c3 -6 -1 -7 -9 -4 -18 7 -21 14 -7 14 6 0 13 -4 16 -10z m-330 -18 c-3 -3 -11
0 -18 7 -9 10 -8 11 6 5 10 -3 15 -9 12 -12z m268 1 c-7 -2 -19 -2 -25 0 -7 3
-2 5 12 5 14 0 19 -2 13 -5z m117 -3 c-8 -5 -19 -10 -25 -10 -5 0 -3 5 5 10 8
5 20 10 25 10 6 0 3 -5 -5 -10z m-487 -7 c-7 -2 -19 -2 -25 0 -7 3 -2 5 12 5
14 0 19 -2 13 -5z m54 -9 c-3 -3 -12 -4 -19 -1 -8 3 -5 6 6 6 11 1 17 -2 13
-5z m251 -3 c7 -4 -13 -6 -45 -4 -79 6 -89 11 -23 12 30 0 61 -3 68 -8z m-98
-51 c-18 -11 -75 -11 -110 0 -15 5 -1 6 36 3 42 -4 64 -2 69 6 4 7 10 10 13 6
4 -3 0 -10 -8 -15z m215 10 c3 -5 -1 -10 -9 -10 -9 0 -16 5 -16 10 0 6 4 10 9
10 6 0 13 -4 16 -10z"/>
<path d="M6042 1600 c0 -14 2 -19 5 -12 2 6 2 18 0 25 -3 6 -5 1 -5 -13z"/>
<path d="M12343 1173 c9 -2 23 -2 30 0 6 3 -1 5 -18 5 -16 0 -22 -2 -12 -5z"/>
<path d="M12418 1163 c6 -2 18 -2 25 0 6 3 1 5 -13 5 -14 0 -19 -2 -12 -5z"/>
<path d="M12595 1030 c-3 -5 -1 -10 4 -10 6 0 11 5 11 10 0 6 -2 10 -4 10 -3
0 -8 -4 -11 -10z"/>
<path d="M12026 1005 c-3 -9 -6 -22 -5 -28 0 -7 5 -1 10 12 5 13 8 26 5 28 -2
2 -6 -3 -10 -12z"/>
<path d="M6204 770 c0 -113 2 -159 3 -102 2 56 2 148 0 205 -1 56 -3 10 -3
-103z"/>
<path d="M11463 915 c-47 -20 -73 -68 -73 -135 0 -30 6 -66 13 -79 47 -92 203
-92 249 0 20 38 23 104 8 145 -28 72 -118 104 -197 69z"/>
<path d="M6742 790 c0 -14 2 -19 5 -12 2 6 2 18 0 25 -3 6 -5 1 -5 -13z"/>
<path d="M12752 670 c0 -14 2 -19 5 -12 2 6 2 18 0 25 -3 6 -5 1 -5 -13z"/>
<path d="M11995 548 c4 -26 3 -29 -4 -13 -9 19 -10 19 -10 -3 -1 -13 -5 -31
-10 -41 -11 -20 -4 -61 11 -61 5 0 8 12 5 28 -2 15 -2 21 0 15 11 -32 23 -7
23 47 0 33 -4 60 -10 60 -5 0 -7 -15 -5 -32z"/>
<path d="M6287 303 c-4 -6 5 -22 20 -37 29 -30 40 -33 40 -11 0 9 -5 14 -11
12 -12 -4 -31 12 -38 33 -3 9 -7 10 -11 3z"/>
<path d="M6821 263 c-6 -13 -9 -28 -7 -32 2 -3 -11 -24 -29 -46 -19 -21 -32
-41 -29 -44 3 -3 8 -1 12 5 4 5 26 35 50 66 47 64 47 64 28 71 -8 3 -18 -5
-25 -20z m10 -16 c-10 -9 -11 -8 -5 6 3 10 9 15 12 12 3 -3 0 -11 -7 -18z"/>
</g>
</svg>
